<?xml version="1.0" encoding="iso-8859-1"?>
<!-- Generator: Adobe Illustrator 17.1.0, SVG Export Plug-In . SVG Version: 6.00 Build 0)  -->
<!DOCTYPE svg PUBLIC "-//W3C//DTD SVG 1.1//EN" "http://www.w3.org/Graphics/SVG/1.1/DTD/svg11.dtd">
<svg xmlns="http://www.w3.org/2000/svg" xmlns:xlink="http://www.w3.org/1999/xlink" version="1.1" id="Capa_1" x="0px" y="0px" viewBox="0 0 162.611 162.611" style="enable-background:new 0 0 162.611 162.611;" xml:space="preserve" width="512px" height="512px">
<path d="M29.493,162.611h-0.437c-13.299,0-24.119-10.819-24.119-24.119V24.119C4.937,10.819,15.757,0,29.056,0h0.437  c9.782,0,18.223,5.853,22.003,14.241h82.395c13.113,0,23.782,10.669,23.782,23.782v85.105c0,13.918-11.322,25.241-25.24,25.241  H51.497C47.716,156.759,39.276,162.611,29.493,162.611z M29.056,5C18.514,5,9.937,13.577,9.937,24.119v114.373  c0,10.542,8.577,19.119,19.119,19.119h0.437c10.542,0,19.12-8.577,19.12-19.119V24.119C48.613,13.577,40.036,5,29.493,5H29.056z   M53.613,143.37h78.821c11.16,0,20.24-9.08,20.24-20.241V38.023c0-10.356-8.426-18.782-18.782-18.782H53.613V143.37z   M123.608,122.872c-4.515,0-8.188-3.673-8.188-8.188s3.673-8.188,8.188-8.188s8.188,3.673,8.188,8.188  S128.122,122.872,123.608,122.872z M123.608,111.497c-1.758,0-3.188,1.43-3.188,3.188s1.43,3.188,3.188,3.188  s3.188-1.43,3.188-3.188S125.365,111.497,123.608,111.497z M103.144,122.872c-4.515,0-8.188-3.673-8.188-8.188  s3.673-8.188,8.188-8.188s8.188,3.673,8.188,8.188S107.658,122.872,103.144,122.872z M103.144,111.497  c-1.758,0-3.188,1.43-3.188,3.188s1.43,3.188,3.188,3.188s3.188-1.43,3.188-3.188S104.902,111.497,103.144,111.497z M82.679,122.872  c-4.515,0-8.188-3.673-8.188-8.188s3.673-8.188,8.188-8.188s8.188,3.673,8.188,8.188S87.194,122.872,82.679,122.872z   M82.679,111.497c-1.758,0-3.188,1.43-3.188,3.188s1.43,3.188,3.188,3.188s3.188-1.43,3.188-3.188S84.437,111.497,82.679,111.497z   M123.608,102.527c-4.515,0-8.188-3.673-8.188-8.188s3.673-8.188,8.188-8.188s8.188,3.674,8.188,8.188  S128.122,102.527,123.608,102.527z M123.608,91.151c-1.758,0-3.188,1.431-3.188,3.188s1.43,3.188,3.188,3.188  s3.188-1.43,3.188-3.188S125.365,91.151,123.608,91.151z M103.144,102.527c-4.515,0-8.188-3.673-8.188-8.188  s3.673-8.188,8.188-8.188s8.188,3.674,8.188,8.188S107.658,102.527,103.144,102.527z M103.144,91.151  c-1.758,0-3.188,1.431-3.188,3.188s1.43,3.188,3.188,3.188s3.188-1.43,3.188-3.188S104.902,91.151,103.144,91.151z M82.679,102.527  c-4.515,0-8.188-3.673-8.188-8.188s3.673-8.188,8.188-8.188s8.188,3.674,8.188,8.188S87.194,102.527,82.679,102.527z M82.679,91.151  c-1.758,0-3.188,1.431-3.188,3.188s1.43,3.188,3.188,3.188s3.188-1.43,3.188-3.188S84.437,91.151,82.679,91.151z M123.608,82.182  c-4.515,0-8.188-3.673-8.188-8.188s3.673-8.188,8.188-8.188s8.188,3.673,8.188,8.188S128.122,82.182,123.608,82.182z   M123.608,70.807c-1.758,0-3.188,1.43-3.188,3.188s1.43,3.188,3.188,3.188s3.188-1.43,3.188-3.188S125.365,70.807,123.608,70.807z   M103.144,82.182c-4.515,0-8.188-3.673-8.188-8.188s3.673-8.188,8.188-8.188s8.188,3.673,8.188,8.188S107.658,82.182,103.144,82.182  z M103.144,70.807c-1.758,0-3.188,1.43-3.188,3.188s1.43,3.188,3.188,3.188s3.188-1.43,3.188-3.188S104.902,70.807,103.144,70.807z   M82.679,82.182c-4.515,0-8.188-3.673-8.188-8.188s3.673-8.188,8.188-8.188s8.188,3.673,8.188,8.188S87.194,82.182,82.679,82.182z   M82.679,70.807c-1.758,0-3.188,1.43-3.188,3.188s1.43,3.188,3.188,3.188s3.188-1.43,3.188-3.188S84.437,70.807,82.679,70.807z   M141.269,49.681h-76.25c-1.381,0-2.5-1.119-2.5-2.5v-16c0-1.381,1.119-2.5,2.5-2.5h67.453c6.229,0,11.298,5.067,11.298,11.297  v7.203C143.769,48.562,142.65,49.681,141.269,49.681z M67.518,44.681h71.25v-4.703c0-3.472-2.825-6.297-6.298-6.297H67.518V44.681z" fill="#ff753a"/>
<g>
</g>
<g>
</g>
<g>
</g>
<g>
</g>
<g>
</g>
<g>
</g>
<g>
</g>
<g>
</g>
<g>
</g>
<g>
</g>
<g>
</g>
<g>
</g>
<g>
</g>
<g>
</g>
<g>
</g>
</svg>
