<?xml version="1.0" encoding="utf-8"?><svg xmlns="http://www.w3.org/2000/svg" xmlns:xlink="http://www.w3.org/1999/xlink"><symbol viewBox="0 0 47.971 47.971" id="close-search" xmlns="http://www.w3.org/2000/svg"><path d="M28.228 23.986L47.092 5.122a2.998 2.998 0 0 0 0-4.242 2.998 2.998 0 0 0-4.242 0L23.986 19.744 5.121.88a2.998 2.998 0 0 0-4.242 0 2.998 2.998 0 0 0 0 4.242l18.865 18.864L.879 42.85a2.998 2.998 0 1 0 4.242 4.241l18.865-18.864L42.85 47.091c.586.586 1.354.879 2.121.879s1.535-.293 2.121-.879a2.998 2.998 0 0 0 0-4.242L28.228 23.986z"/></symbol><symbol viewBox="0 0 368 368" id="earth" xmlns="http://www.w3.org/2000/svg"><path d="M347.816 100.367C317.305 40.855 255.352 0 184 0 112.625 0 50.664 40.871 20.16 100.426c-.12.238-.265.453-.36.703C7.169 126.055 0 154.199 0 184c0 29.809 7.168 57.953 19.8 82.871.095.25.24.465.36.703C50.656 327.13 112.625 368 184 368c71.352 0 133.305-40.848 163.816-100.367.137-.266.297-.504.399-.785C360.84 241.93 368 213.793 368 184s-7.16-57.93-19.785-82.848c-.11-.28-.262-.52-.399-.785zM335.56 256h-70.32c3.906-19.71 6.226-41.266 6.663-64h79.692c-1.082 22.824-6.7 44.434-16.035 64zM184 352c-25.305 0-48-32.441-60.871-80H244.87C232 319.559 209.305 352 184 352zm-64.695-96c-4.137-19.672-6.64-41.305-7.121-64h143.64c-.488 22.695-2.992 44.328-7.12 64zM16.406 192h79.692c.445 22.734 2.757 44.29 6.664 64h-70.32c-9.337-19.566-14.954-41.176-16.036-64zm16.035-80h70.32c-3.906 19.71-6.226 41.266-6.663 64H16.406c1.082-22.824 6.7-44.434 16.035-64zM184 16c25.305 0 48 32.441 60.871 80H123.13C136 48.441 158.695 16 184 16zm64.695 96c4.137 19.664 6.64 41.305 7.121 64h-143.64c.488-22.695 2.992-44.336 7.12-64zm23.207 64c-.445-22.734-2.757-44.29-6.664-64h70.32c9.337 19.566 14.954 41.176 16.036 64zm54.93-80h-65.215c-8.097-31.742-20.512-57.633-35.722-74.496C268.383 32.473 304.32 59.594 326.832 96zM142.098 21.504C126.895 38.367 114.48 64.258 106.375 96H41.16c22.52-36.406 58.457-63.527 100.938-74.496zM41.168 272h65.207c8.098 31.742 20.512 57.633 35.723 74.496C99.618 335.527 63.68 308.398 41.168 272zm184.734 74.496c15.203-16.863 27.618-42.754 35.723-74.496h65.207c-22.512 36.398-58.45 63.527-100.93 74.496zm0 0"/></symbol><symbol viewBox="0 0 96.124 96.123" id="facebook" xmlns="http://www.w3.org/2000/svg"><path d="M72.089.02L59.624 0C45.62 0 36.57 9.285 36.57 23.656v10.907H24.037a1.96 1.96 0 0 0-1.96 1.961v15.803a1.96 1.96 0 0 0 1.96 1.96H36.57v39.876a1.96 1.96 0 0 0 1.96 1.96h16.352a1.96 1.96 0 0 0 1.96-1.96V54.287h14.654a1.96 1.96 0 0 0 1.96-1.96l.006-15.803a1.963 1.963 0 0 0-1.961-1.961H56.842v-9.246c0-4.444 1.059-6.7 6.848-6.7l8.397-.003a1.96 1.96 0 0 0 1.959-1.96V1.98A1.96 1.96 0 0 0 72.089.02z"/></symbol><symbol viewBox="0 0 475.092 475.092" id="google-plus" xmlns="http://www.w3.org/2000/svg"><path d="M273.372 302.498a148.384 148.384 0 0 0-16.7-18.842c-6.091-5.804-12.183-11.088-18.271-15.845-6.092-4.757-11.659-9.329-16.702-13.709-5.042-4.374-9.135-8.945-12.275-13.702-3.14-4.757-4.711-9.61-4.711-14.558 0-6.855 2.19-13.278 6.567-19.274 4.377-5.996 9.707-11.799 15.986-17.417 6.28-5.617 12.559-11.753 18.844-18.415 6.276-6.665 11.604-15.465 15.985-26.412 4.373-10.944 6.563-23.458 6.563-37.542 0-16.75-3.713-32.835-11.136-48.25-7.423-15.418-17.89-27.412-31.405-35.976h38.54L303.2 0H178.441c-17.699 0-35.498 1.906-53.384 5.72-26.453 5.9-48.723 19.368-66.806 40.397-18.08 21.033-27.122 44.873-27.122 71.52 0 28.171 10.138 51.583 30.406 70.233 20.269 18.649 44.585 27.978 72.945 27.978 5.71 0 12.371-.478 19.985-1.427-.381 1.521-1.043 3.567-1.997 6.136s-1.715 4.62-2.286 6.14c-.57 1.521-1.047 3.375-1.425 5.566a38.99 38.99 0 0 0-.571 6.71c0 12.563 6.086 26.744 18.271 42.541-14.465.387-28.737 1.67-42.825 3.86-14.084 2.19-28.833 5.616-44.252 10.28-15.417 4.661-29.217 11.42-41.396 20.27-12.182 8.854-21.317 19.366-27.408 31.549C3.533 361.559.01 374.405.01 386.017c0 12.751 2.857 24.314 8.565 34.69 5.708 10.369 13.035 18.842 21.982 25.406 8.945 6.57 19.273 12.083 30.978 16.562 11.704 4.47 23.315 7.659 34.829 9.562 11.516 1.903 22.888 2.854 34.119 2.854 51.007 0 90.981-12.464 119.909-37.397 26.648-23.223 39.971-50.062 39.971-80.517 0-10.855-1.57-20.984-4.712-30.409-3.141-9.431-7.231-17.514-12.279-24.27zM163.311 198.722c-9.707 0-18.937-2.475-27.694-7.426-8.757-4.95-16.18-11.374-22.27-19.273-6.088-7.898-11.418-16.796-15.987-26.695-4.567-9.896-7.944-19.792-10.135-29.692-2.19-9.895-3.284-19.318-3.284-28.265 0-18.271 4.854-33.974 14.562-47.108 9.705-13.134 23.411-19.701 41.112-19.701 12.563 0 23.935 3.899 34.118 11.704 10.183 7.804 18.177 17.701 23.984 29.692a187.496 187.496 0 0 1 13.417 37.257c3.14 12.847 4.711 24.983 4.711 36.403 0 19.036-4.139 34.317-12.419 45.833-8.282 11.513-21.651 17.271-40.115 17.271zm78.94 214.401c-5.23 8.949-12.319 15.94-21.267 20.981-8.946 5.048-18.509 8.758-28.693 11.14-10.183 2.385-20.889 3.572-32.12 3.572-12.182 0-24.27-1.431-36.258-4.284-11.99-2.851-23.459-7.187-34.403-12.991-10.944-5.8-19.795-13.798-26.551-23.982-6.757-10.184-10.135-21.744-10.135-34.69 0-11.419 2.568-21.601 7.708-30.55 5.142-8.945 11.709-16.084 19.702-21.408 7.994-5.332 17.319-9.713 27.979-13.131 10.66-3.433 20.937-5.808 30.833-7.139 9.895-1.335 19.985-1.995 30.262-1.995 6.283 0 11.043.191 14.277.567 1.143.767 4.043 2.759 8.708 5.996s7.804 5.428 9.423 6.57c1.615 1.137 4.567 3.326 8.85 6.563 4.281 3.237 7.327 5.661 9.135 7.279 1.803 1.618 4.421 4.045 7.849 7.279 3.424 3.237 5.948 6.043 7.566 8.422a982.05 982.05 0 0 0 5.996 8.702c2.38 3.433 4.043 6.715 4.998 9.855a158.985 158.985 0 0 1 2.707 10.277c.855 3.72 1.283 7.569 1.283 11.57.005 11.987-2.613 22.456-7.849 31.397z"/><path d="M401.998 73.089V0h-36.549v73.089h-73.091v36.547h73.091v73.089h36.549v-73.089h73.083V73.089z"/></symbol><symbol viewBox="0 0 56.966 56.966" id="header-search" xmlns="http://www.w3.org/2000/svg"><path d="M55.146 51.887L41.588 37.786A22.926 22.926 0 0 0 46.984 23c0-12.682-10.318-23-23-23s-23 10.318-23 23 10.318 23 23 23c4.761 0 9.298-1.436 13.177-4.162l13.661 14.208c.571.593 1.339.92 2.162.92.779 0 1.518-.297 2.079-.837a3.004 3.004 0 0 0 .083-4.242zM23.984 6c9.374 0 17 7.626 17 17s-7.626 17-17 17-17-7.626-17-17 7.626-17 17-17z"/></symbol><symbol viewBox="0 0 51.997 51.997" id="heart" xmlns="http://www.w3.org/2000/svg"><path d="M51.911 16.242c-.759-8.354-6.672-14.415-14.072-14.415-4.93 0-9.444 2.653-11.984 6.905-2.517-4.307-6.846-6.906-11.697-6.906C6.759 1.826.845 7.887.087 16.241c-.06.369-.306 2.311.442 5.478 1.078 4.568 3.568 8.723 7.199 12.013l18.115 16.439 18.426-16.438c3.631-3.291 6.121-7.445 7.199-12.014.748-3.166.502-5.108.443-5.477zm-2.39 5.019c-.984 4.172-3.265 7.973-6.59 10.985L25.855 47.481 9.072 32.25c-3.331-3.018-5.611-6.818-6.596-10.99-.708-2.997-.417-4.69-.416-4.701l.015-.101c.65-7.319 5.731-12.632 12.083-12.632 4.687 0 8.813 2.88 10.771 7.515l.921 2.183.921-2.183c1.927-4.564 6.271-7.514 11.069-7.514 6.351 0 11.433 5.313 12.096 12.727.002.016.293 1.71-.415 4.707z"/></symbol><symbol viewBox="0 0 162.611 162.611" id="home-phone" xmlns="http://www.w3.org/2000/svg"><path d="M29.493 162.611h-.437c-13.299 0-24.119-10.819-24.119-24.119V24.119C4.937 10.819 15.757 0 29.056 0h.437c9.782 0 18.223 5.853 22.003 14.241h82.395c13.113 0 23.782 10.669 23.782 23.782v85.105c0 13.918-11.322 25.241-25.24 25.241H51.497c-3.781 8.39-12.221 14.242-22.004 14.242zM29.056 5C18.514 5 9.937 13.577 9.937 24.119v114.373c0 10.542 8.577 19.119 19.119 19.119h.437c10.542 0 19.12-8.577 19.12-19.119V24.119C48.613 13.577 40.036 5 29.493 5h-.437zm24.557 138.37h78.821c11.16 0 20.24-9.08 20.24-20.241V38.023c0-10.356-8.426-18.782-18.782-18.782H53.613V143.37zm69.995-20.498c-4.515 0-8.188-3.673-8.188-8.188s3.673-8.188 8.188-8.188 8.188 3.673 8.188 8.188-3.674 8.188-8.188 8.188zm0-11.375c-1.758 0-3.188 1.43-3.188 3.188s1.43 3.188 3.188 3.188 3.188-1.43 3.188-3.188-1.431-3.188-3.188-3.188zm-20.464 11.375c-4.515 0-8.188-3.673-8.188-8.188s3.673-8.188 8.188-8.188 8.188 3.673 8.188 8.188-3.674 8.188-8.188 8.188zm0-11.375c-1.758 0-3.188 1.43-3.188 3.188s1.43 3.188 3.188 3.188 3.188-1.43 3.188-3.188-1.43-3.188-3.188-3.188zm-20.465 11.375c-4.515 0-8.188-3.673-8.188-8.188s3.673-8.188 8.188-8.188 8.188 3.673 8.188 8.188-3.673 8.188-8.188 8.188zm0-11.375c-1.758 0-3.188 1.43-3.188 3.188s1.43 3.188 3.188 3.188 3.188-1.43 3.188-3.188-1.43-3.188-3.188-3.188zm40.929-8.97c-4.515 0-8.188-3.673-8.188-8.188s3.673-8.188 8.188-8.188 8.188 3.674 8.188 8.188-3.674 8.188-8.188 8.188zm0-11.376c-1.758 0-3.188 1.431-3.188 3.188s1.43 3.188 3.188 3.188 3.188-1.43 3.188-3.188-1.431-3.188-3.188-3.188zm-20.464 11.376c-4.515 0-8.188-3.673-8.188-8.188s3.673-8.188 8.188-8.188 8.188 3.674 8.188 8.188-3.674 8.188-8.188 8.188zm0-11.376c-1.758 0-3.188 1.431-3.188 3.188s1.43 3.188 3.188 3.188 3.188-1.43 3.188-3.188-1.43-3.188-3.188-3.188zm-20.465 11.376c-4.515 0-8.188-3.673-8.188-8.188s3.673-8.188 8.188-8.188 8.188 3.674 8.188 8.188-3.673 8.188-8.188 8.188zm0-11.376c-1.758 0-3.188 1.431-3.188 3.188s1.43 3.188 3.188 3.188 3.188-1.43 3.188-3.188-1.43-3.188-3.188-3.188zm40.929-8.969c-4.515 0-8.188-3.673-8.188-8.188s3.673-8.188 8.188-8.188 8.188 3.673 8.188 8.188-3.674 8.188-8.188 8.188zm0-11.375c-1.758 0-3.188 1.43-3.188 3.188s1.43 3.188 3.188 3.188 3.188-1.43 3.188-3.188-1.431-3.188-3.188-3.188zm-20.464 11.375c-4.515 0-8.188-3.673-8.188-8.188s3.673-8.188 8.188-8.188 8.188 3.673 8.188 8.188-3.674 8.188-8.188 8.188zm0-11.375c-1.758 0-3.188 1.43-3.188 3.188s1.43 3.188 3.188 3.188 3.188-1.43 3.188-3.188-1.43-3.188-3.188-3.188zM82.679 82.182c-4.515 0-8.188-3.673-8.188-8.188s3.673-8.188 8.188-8.188 8.188 3.673 8.188 8.188-3.673 8.188-8.188 8.188zm0-11.375c-1.758 0-3.188 1.43-3.188 3.188s1.43 3.188 3.188 3.188 3.188-1.43 3.188-3.188-1.43-3.188-3.188-3.188zm58.59-21.126h-76.25a2.5 2.5 0 0 1-2.5-2.5v-16a2.5 2.5 0 0 1 2.5-2.5h67.453c6.229 0 11.298 5.067 11.298 11.297v7.203a2.501 2.501 0 0 1-2.501 2.5zm-73.751-5h71.25v-4.703a6.305 6.305 0 0 0-6.298-6.297H67.518v11z"/></symbol><symbol viewBox="0 0 97.395 97.395" id="instagram" xmlns="http://www.w3.org/2000/svg"><path d="M12.501 0h72.393c6.875 0 12.5 5.09 12.5 12.5v72.395c0 7.41-5.625 12.5-12.5 12.5H12.501C5.624 97.395 0 92.305 0 84.895V12.5C0 5.09 5.624 0 12.501 0zm58.447 10.821a4.395 4.395 0 0 0-4.383 4.385v10.495a4.396 4.396 0 0 0 4.383 4.385h11.008a4.398 4.398 0 0 0 4.385-4.385V15.206a4.397 4.397 0 0 0-4.385-4.385H70.948zm15.439 30.367h-8.572a28.486 28.486 0 0 1 1.25 8.355c0 16.2-13.556 29.332-30.275 29.332-16.718 0-30.272-13.132-30.272-29.332 0-2.904.438-5.708 1.25-8.355h-8.945v41.141a3.884 3.884 0 0 0 3.872 3.872h67.822a3.883 3.883 0 0 0 3.872-3.872V41.188h-.002zM48.789 29.533c-10.802 0-19.56 8.485-19.56 18.953s8.758 18.953 19.56 18.953c10.803 0 19.562-8.485 19.562-18.953s-8.758-18.953-19.562-18.953z"/></symbol><symbol viewBox="0 0 44 44" id="letter" xmlns="http://www.w3.org/2000/svg"><path d="M43 6H1a1 1 0 0 0-1 1v30a1 1 0 0 0 1 1h42a1 1 0 0 0 1-1V7a1 1 0 0 0-1-1zm-1 27.581L29.612 21.194l-1.414 1.414L41.59 36H2.41l13.392-13.392-1.414-1.414L2 33.581V8h40v25.581z"/><path d="M39.979 8L22 25.979 4.021 8H2v.807L21.293 28.1a.999.999 0 0 0 1.414 0L42 8.807V8h-2.021z"/></symbol><symbol viewBox="0 0 31.012 31.012" id="mail" xmlns="http://www.w3.org/2000/svg"><path d="M25.109 21.51a.495.495 0 0 1-.342-.136l-5.754-5.398a.5.5 0 1 1 .685-.728l5.754 5.398a.5.5 0 0 1-.343.864zm-19.207 0a.5.5 0 0 1-.343-.864l5.756-5.398a.5.5 0 0 1 .685.728l-5.756 5.398a.495.495 0 0 1-.342.136z"/><path d="M28.512 26.529H2.5a2.503 2.503 0 0 1-2.5-2.5V6.982c0-1.379 1.122-2.5 2.5-2.5h26.012c1.378 0 2.5 1.121 2.5 2.5v17.047c0 1.379-1.122 2.5-2.5 2.5zM2.5 5.482c-.827 0-1.5.673-1.5 1.5v17.047c0 .827.673 1.5 1.5 1.5h26.012c.827 0 1.5-.673 1.5-1.5V6.982c0-.827-.673-1.5-1.5-1.5H2.5z"/><path d="M15.506 18.018c-.665 0-1.33-.221-1.836-.662L.83 6.155a.501.501 0 0 1-.049-.706.503.503 0 0 1 .706-.048l12.84 11.2c.639.557 1.719.557 2.357 0L29.508 5.419a.5.5 0 0 1 .658.754L17.342 17.355c-.507.442-1.171.663-1.836.663z"/></symbol><symbol viewBox="0 0 291.764 291.764" id="payment-amex" xmlns="http://www.w3.org/2000/svg"><path d="M18.235 41.025h255.294c10.066 0 18.235 8.169 18.235 18.244v173.235c0 10.066-8.169 18.235-18.235 18.235H18.235C8.16 250.74 0 242.57 0 232.505V59.269c0-10.075 8.169-18.244 18.235-18.244z"/><path d="M47.047 113.966l-28.812 63.76h34.492l4.276-10.166h9.774l4.276 10.166h37.966v-7.759l3.383 7.759h19.639l3.383-7.923v7.923h78.959l9.601-9.902 8.99 9.902 40.555.082-28.903-31.784 28.903-32.058h-39.926l-9.346 9.719-8.707-9.719h-85.897l-7.376 16.457-7.549-16.457h-34.42v7.495l-3.829-7.495H47.047zm6.674 9.054h16.813l19.111 43.236V123.02h18.418l14.761 31 13.604-31h18.326v45.752h-11.151l-.091-35.851-16.257 35.851h-9.975l-16.348-35.851v35.851h-22.94l-4.349-10.257H50.147l-4.34 10.248H33.516l20.205-45.743zm111.235 0h45.342L224.166 138l14.315-14.98h13.868l-21.071 22.995 21.071 22.73h-14.497l-13.868-15.154-14.388 15.154h-44.64V123.02zM61.9 130.761l-7.741 18.272h15.473L61.9 130.761zm114.253 1.732v8.352h24.736v9.309h-24.736v9.118h27.745l12.892-13.43-12.345-13.357h-28.292v.008z"/></symbol><symbol viewBox="0 0 449.172 449.172" id="payment-visa" xmlns="http://www.w3.org/2000/svg"><path d="M429.926 88.908H19.246C8.617 88.908 0 97.525 0 108.154v232.864c0 10.629 8.617 19.246 19.246 19.246h410.68c10.629 0 19.246-8.617 19.246-19.246V108.154c0-10.629-8.617-19.246-19.246-19.246zm-12.511 239.6H31.757V120.665h385.658v207.843z"/><path d="M290.441 272.604a2.997 2.997 0 0 0 2.514 1.361h21.525a3.003 3.003 0 0 0 2.806-1.936c2.646-6.979 4.343-11.426 4.903-12.862 1.429 0 8.04.008 15.128.019h.4c8.146.01 16.8.021 18.871.021.611 2.615 2.126 9.541 2.751 12.396a3 3 0 0 0 2.931 2.36h18.771a3 3 0 0 0 2.93-3.645l-20.414-92.478a3 3 0 0 0-2.93-2.354H342.29c-7.334 0-11.542 2.445-14.069 8.174l-38.011 86.091a3.007 3.007 0 0 0 .231 2.853zm53.759-70.553l1.815 8.512L352.232 239h-22.314l14.282-36.949zm-126.822 67.388c7.083 2.484 16.974 4.029 26.456 4.131h.032c27.188-.006 44.881-12.748 45.075-32.463.104-10.84-6.811-19.038-21.678-25.764-9.101-4.421-14.676-7.357-14.623-11.853 0-4.042 5.098-8.133 14.893-8.134.236-.004.516-.006.79-.006 8.134 0 13.879 1.844 17.492 3.231a3.003 3.003 0 0 0 4.034-2.298l2.428-14.277a3 3 0 0 0-2.044-3.36c-4.464-1.428-11.682-3.13-20.723-3.13-25.626 0-43.623 12.892-43.766 31.339-.162 13.66 12.867 21.281 22.688 25.826 10.073 4.646 13.457 7.619 13.411 11.781-.071 6.372-8.075 9.273-15.483 9.273-10.543 0-16.225-1.59-24.263-4.933a3 3 0 0 0-4.109 2.265l-2.573 15.033a3 3 0 0 0 1.963 3.339zM67.114 181.03c17.185 6.185 31.242 15.999 40.652 28.382a3 3 0 0 0 5.325-2.435l-5.001-23.645a3.69 3.69 0 0 0-.036-.151c-1.798-6.753-7.491-7.757-11.617-7.924l-.117-.002-28.185-.046h-.005a2.999 2.999 0 1 0-1.016 5.821zm104.04 91.829a2.998 2.998 0 0 0 2.293 1.065h20.766a2.999 2.999 0 0 0 2.957-2.496l15.78-92.537a2.998 2.998 0 0 0-2.956-3.504h-20.781a3 3 0 0 0-2.957 2.496L170.49 270.42a3.002 3.002 0 0 0 .664 2.439z"/><path d="M88.185 196.697a2.999 2.999 0 0 0-4.707 3.221l21.008 71.777a3 3 0 0 0 2.879 2.158h.003l24.193-.035a2.998 2.998 0 0 0 2.752-1.814l39.711-92.351a2.999 2.999 0 0 0-2.756-4.185h-.002l-21.845.011a3 3 0 0 0-2.792 1.906l-25.557 65.288-2.749-9.95a2.838 2.838 0 0 0-.137-.388c-4.034-9.363-14.875-24.014-30.001-35.638z"/></symbol><symbol viewBox="0 0 486.569 486.569" id="shopping-cart" xmlns="http://www.w3.org/2000/svg"><path d="M146.069 320.369h268.1c30.4 0 55.2-24.8 55.2-55.2v-114c0-.2 0-.4-.1-.6 0-.2-.1-.5-.1-.7s-.1-.4-.1-.6c-.1-.2-.1-.4-.2-.7-.1-.2-.1-.4-.2-.6-.1-.2-.1-.4-.2-.6-.1-.2-.2-.4-.3-.7-.1-.2-.2-.4-.3-.5l-.3-.6c-.1-.2-.2-.3-.3-.5-.1-.2-.3-.4-.4-.6-.1-.2-.2-.3-.4-.5-.1-.2-.3-.3-.4-.5s-.3-.3-.4-.5-.3-.3-.4-.4l-.5-.5c-.2-.1-.3-.3-.5-.4-.2-.1-.4-.3-.6-.4-.2-.1-.3-.2-.5-.3s-.4-.2-.6-.4l-.6-.3-.6-.3-.6-.3c-.2-.1-.4-.1-.6-.2-.2-.1-.5-.2-.7-.2s-.4-.1-.5-.1c-.3-.1-.5-.1-.8-.1-.1 0-.2-.1-.4-.1l-339.8-46.9v-47.4c0-.5 0-1-.1-1.4 0-.1 0-.2-.1-.4 0-.3-.1-.6-.1-.9-.1-.3-.1-.5-.2-.8 0-.2-.1-.3-.1-.5l-.3-.9c0-.1-.1-.3-.1-.4-.1-.3-.2-.5-.4-.8-.1-.1-.1-.3-.2-.4-.1-.2-.2-.4-.4-.6-.1-.2-.2-.3-.3-.5s-.2-.3-.3-.5-.3-.4-.4-.6l-.3-.3-.6-.6-.3-.3c-.2-.2-.4-.4-.7-.6-.1-.1-.3-.2-.4-.3-.2-.2-.4-.3-.6-.5-.3-.2-.6-.4-.8-.5-.1-.1-.2-.1-.3-.2-.4-.2-.9-.4-1.3-.6l-73.7-31c-6.9-2.9-14.8.3-17.7 7.2s.3 14.8 7.2 17.7l65.4 27.6v295.8c0 28 21 51.2 48.1 54.7-4.9 8.2-7.8 17.8-7.8 28 0 30.1 24.5 54.5 54.5 54.5s54.5-24.5 54.5-54.5c0-10-2.7-19.5-7.5-27.5h121.4c-4.8 8.1-7.5 17.5-7.5 27.5 0 30.1 24.5 54.5 54.5 54.5s54.5-24.5 54.5-54.5-24.5-54.5-54.5-54.5h-255c-15.6 0-28.2-12.7-28.2-28.2v-36.6c8.2 4.8 17.9 7.6 28.2 7.6zm67.2 111.6c0 15.2-12.4 27.5-27.5 27.5s-27.5-12.4-27.5-27.5 12.4-27.5 27.5-27.5 27.5 12.3 27.5 27.5zm215.4 0c0 15.2-12.4 27.5-27.5 27.5s-27.5-12.4-27.5-27.5 12.4-27.5 27.5-27.5 27.5 12.3 27.5 27.5zm-14.5-138.6h-268.1c-15.6 0-28.2-12.7-28.2-28.2v-145.9l324.5 44.7v101.1c0 15.7-12.7 28.3-28.2 28.3z"/></symbol><symbol viewBox="0 0 512 512" id="shopping-new__cart" xmlns="http://www.w3.org/2000/svg"><path d="M370.7 401.4c-22.9 0-41.7 18.8-41.7 41.7 0 22.9 18.8 41.7 41.7 41.7s41.7-18.8 41.7-41.7c0-22.9-18.8-41.7-41.7-41.7zm20.8 41.7c0 11.5-9.4 20.9-20.9 20.9s-20.9-9.4-20.9-20.9c0-11.5 9.4-20.9 20.9-20.9 12.6.1 22 9.5 20.9 20.9zm-166.8-41.7c-22.9 0-41.7 18.8-41.7 41.7 0 22.9 18.8 41.7 41.7 41.7s41.7-18.8 41.7-41.7c0-22.9-18.7-41.7-41.7-41.7zm0 62.6c-11.5 0-20.9-9.4-20.9-20.9 0-11.5 9.4-20.9 20.9-20.9 11.5 0 20.9 9.4 20.9 20.9 0 11.5-9.4 20.9-20.9 20.9zm182.4-302.4c4.1-10.9 6.3-22.6 6.3-34.9 0-55-44.6-99.6-99.6-99.6s-99.6 44.6-99.6 99.6c0 12.3 2.2 24.1 6.3 34.9H147L108 28.2H11V48h81.3l92.8 315.9h231.4L501 161.6h-93.9zM313.9 48c43.5 0 78.7 35.2 78.7 78.7s-35.2 78.7-78.7 78.7-78.7-35.2-78.7-78.7c-.1-43.4 35.2-78.7 78.7-78.7zM403 343.1H199.7L153 182.5h78.3c17.9 26.4 48.2 43.8 82.5 43.8s64.6-17.4 82.5-43.8h73.4L403 343.1z"/><path d="M304 174.2h20.8v-36.5h36.5v-20.9h-36.5V79.3H304v37.5h-37.6v20.9H304z"/></symbol><symbol viewBox="0 0 19.481 19.481" id="star" xmlns="http://www.w3.org/2000/svg"><path d="M10.201.758l2.478 5.865 6.344.545a.5.5 0 0 1 .285.876l-4.812 4.169 1.442 6.202a.5.5 0 0 1-.745.541l-5.452-3.288-5.452 3.288a.5.5 0 0 1-.745-.541l1.442-6.202-4.813-4.17a.5.5 0 0 1 .285-.876l6.344-.545L9.28.758a.5.5 0 0 1 .921 0z"/></symbol><symbol viewBox="0 0 612 612" id="twitter" xmlns="http://www.w3.org/2000/svg"><path d="M612 116.258a250.714 250.714 0 0 1-72.088 19.772c25.929-15.527 45.777-40.155 55.184-69.411-24.322 14.379-51.169 24.82-79.775 30.48-22.907-24.437-55.49-39.658-91.63-39.658-69.334 0-125.551 56.217-125.551 125.513 0 9.828 1.109 19.427 3.251 28.606-104.326-5.24-196.835-55.223-258.75-131.174-10.823 18.51-16.98 40.078-16.98 63.101 0 43.559 22.181 81.993 55.835 104.479a125.556 125.556 0 0 1-56.867-15.756v1.568c0 60.806 43.291 111.554 100.693 123.104-10.517 2.83-21.607 4.398-33.08 4.398-8.107 0-15.947-.803-23.634-2.333 15.985 49.907 62.336 86.199 117.253 87.194-42.947 33.654-97.099 53.655-155.916 53.655-10.134 0-20.116-.612-29.944-1.721 55.567 35.681 121.536 56.485 192.438 56.485 230.948 0 357.188-191.291 357.188-357.188l-.421-16.253c24.666-17.593 46.005-39.697 62.794-64.861z"/></symbol></svg>